<?xml version="1.0" encoding="utf-8"?>
<!-- Generator: Adobe Illustrator 25.2.3, SVG Export Plug-In . SVG Version: 6.00 Build 0)  -->
<svg version="1.1" id="Layer_1" xmlns="http://www.w3.org/2000/svg" xmlns:xlink="http://www.w3.org/1999/xlink" x="0px"
	y="0px" viewBox="0 0 1024 1083" style="enable-background:new 0 0 1024 1083;" xml:space="preserve">
	<style type="text/css">
		.st0 {
			fill: #FFFFFF;
			stroke: #000000;
			stroke-miterlimit: 10;
		}

		.st1 {
			fill: #FFFFFF;
			stroke: #FFFFFF;
			stroke-miterlimit: 10;
		}

		.st2 {
			fill: #FFFFFF;
			stroke: #FF94A3;
			stroke-miterlimit: 10;
		}

		.st3 {
			font-family: 'MyriadPro-Regular';
		}

		.st4 {
			font-size: 12px;
		}
	</style>
	<image style="overflow:visible;" width="1024" height="1083" xlink:href="map.jpg">
	</image>
	<polygon class="st0" points="120,440 330,370 360,545 145,615" />
	<polygon class="st0" points="154.4,649.8 401,558.6 455.1,698.8 218.6,803.5 166.2,712.3 " />
	<polygon class="st0" points="218.4,805.3 458.7,696.1 525,840.8 287,943.3 " />
	<polygon class="st1" points="289.5,947.8 597.5,813.4 645.2,906.6 349.4,1058.5 " />
	<polygon class="st0" points="336.8,327.1 462.1,266.3 613.2,558.6 474.5,622.8 " />
	<polygon class="st0" points="144.8,200.4 336.9,101.3 415.1,227.5 215,324.3 " />
	<polygon class="st0" points="507.5,611 734.2,500.9 864.3,790.2 645.2,906.6 " />
	<polygon class="st0" points="475,250.6 635.5,172.7 781.9,456.3 612.7,546.2 " />
	<path class="st2" d="M342,384.4" />
	<path class="st2" d="M368.3,563.1" />
	<path class="st0" d="M325.8,372.3" />
	<path class="st0" d="M110.3,442.3" />
	<path class="st0" d="M271.7,560" />
	<path class="st0" d="M56.2,630" />
	<text transform="matrix(1 0 0 1 711.1102 391.4878)" class="st3 st4">4</text>
</svg>