<svg width="40" height="40" viewBox="0 0 40 40" fill="none" xmlns="http://www.w3.org/2000/svg">
<path d="M20 2.5C16.5388 2.5 13.1554 3.52636 10.2775 5.44928C7.39967 7.37221 5.15665 10.1053 3.83212 13.303C2.50758 16.5007 2.16102 20.0194 2.83627 23.4141C3.51151 26.8087 5.17822 29.9269 7.62564 32.3744C10.0731 34.8218 13.1913 36.4885 16.5859 37.1637C19.9806 37.839 23.4993 37.4924 26.697 36.1679C29.8947 34.8434 32.6278 32.6003 34.5507 29.7225C36.4737 26.8446 37.5 23.4612 37.5 20C37.5 15.3587 35.6563 10.9075 32.3744 7.62563C29.0925 4.34374 24.6413 2.5 20 2.5ZM12.5 32.975V30.475C12.4451 29.4194 12.8076 28.3846 13.5093 27.5941C14.2109 26.8036 15.1954 26.3208 16.25 26.25H23.75C24.8069 26.3208 25.7933 26.8053 26.4953 27.5986C27.1973 28.3918 27.5583 29.4298 27.5 30.4875V32.9875C25.2231 34.3139 22.6351 35.0127 20 35.0127C17.3649 35.0127 14.7769 34.3139 12.5 32.9875V32.975ZM30 31.15V30.3875C30.0341 28.6833 29.3987 27.0337 28.2302 25.7927C27.0616 24.5517 25.4532 23.8184 23.75 23.75H16.25C14.5457 23.8152 12.9354 24.5476 11.7662 25.7893C10.597 27.0309 9.96268 28.6824 10 30.3875V31.125C7.73571 29.0997 6.13971 26.4347 5.4232 23.4825C4.70669 20.5304 4.90344 17.4302 5.98742 14.5923C7.0714 11.7544 8.99152 9.31255 11.4937 7.5898C13.9959 5.86706 16.9621 4.94466 20 4.94466C23.0379 4.94466 26.0042 5.86706 28.5063 7.5898C31.0085 9.31255 32.9286 11.7544 34.0126 14.5923C35.0966 17.4302 35.2933 20.5304 34.5768 23.4825C33.8603 26.4347 32.2643 29.0997 30 31.125V31.15Z" fill="#799C8A"/>
<path d="M20 8.75C18.7639 8.75 17.5555 9.11656 16.5277 9.80331C15.4999 10.4901 14.6988 11.4662 14.2258 12.6082C13.7527 13.7503 13.6289 15.0069 13.8701 16.2193C14.1113 17.4317 14.7065 18.5453 15.5806 19.4194C16.4547 20.2935 17.5683 20.8888 18.7807 21.1299C19.9931 21.3711 21.2497 21.2473 22.3918 20.7742C23.5338 20.3012 24.5099 19.5001 25.1967 18.4723C25.8834 17.4445 26.25 16.2361 26.25 15C26.25 13.3424 25.5915 11.7527 24.4194 10.5806C23.2473 9.40848 21.6576 8.75 20 8.75ZM20 18.75C19.2583 18.75 18.5333 18.5301 17.9166 18.118C17.2999 17.706 16.8193 17.1203 16.5355 16.4351C16.2516 15.7498 16.1774 14.9958 16.3221 14.2684C16.4668 13.541 16.8239 12.8728 17.3484 12.3483C17.8728 11.8239 18.541 11.4667 19.2684 11.3221C19.9958 11.1774 20.7498 11.2516 21.4351 11.5355C22.1203 11.8193 22.706 12.2999 23.118 12.9166C23.5301 13.5333 23.75 14.2583 23.75 15C23.75 15.9946 23.3549 16.9484 22.6517 17.6517C21.9484 18.3549 20.9946 18.75 20 18.75Z" fill="#799C8A"/>
</svg>
