<svg width="28" height="28" viewBox="0 0 28 28" fill="none" xmlns="http://www.w3.org/2000/svg">
<path fill-rule="evenodd" clip-rule="evenodd" d="M28.0003 14.3189C28.0003 13.3261 27.9094 12.3714 27.7407 11.455H14.2861V16.8707H21.9743C21.6432 18.6208 20.6367 20.1036 19.1237 21.0964V24.6093H23.7407C26.4419 22.1718 28.0003 18.5827 28.0003 14.3189Z" fill="#4285F4"/>
<path fill-rule="evenodd" clip-rule="evenodd" d="M14.2857 28C18.1428 28 21.3766 26.7463 23.7402 24.6081L19.1233 21.0952C17.8441 21.9352 16.2077 22.4316 14.2857 22.4316C10.5649 22.4316 7.41554 19.9688 6.29221 16.6595H1.51953V20.2869C3.87016 24.8626 8.70125 28 14.2857 28Z" fill="#34A853"/>
<path fill-rule="evenodd" clip-rule="evenodd" d="M6.2922 16.661C6.00648 15.821 5.8441 14.9237 5.8441 14.0009C5.8441 13.0781 6.00648 12.1808 6.2922 11.3408V7.71338H1.51952C0.551903 9.60346 0 11.7417 0 14.0009C0 16.2601 0.551903 18.3983 1.51952 20.2884L6.2922 16.661Z" fill="#FBBC05"/>
<path fill-rule="evenodd" clip-rule="evenodd" d="M14.2857 5.56835C16.3831 5.56835 18.2661 6.27476 19.7468 7.66222L23.844 3.64653C21.3701 1.38731 18.1363 0 14.2857 0C8.70125 0 3.87016 3.13738 1.51953 7.71308L6.29221 11.3405C7.41554 8.03121 10.5649 5.56835 14.2857 5.56835Z" fill="#EA4335"/>
</svg>
