<svg width="16" height="16" viewBox="0 0 16 16" fill="none" xmlns="http://www.w3.org/2000/svg">
<path d="M8 2C4.69229 2 2 4.69229 2 8C2 11.3077 4.69229 14 8 14C11.3077 14 14 11.3077 14 8C14 4.69229 11.3077 2 8 2ZM8 12.2857C5.63686 12.2857 3.71429 10.3631 3.71429 8C3.71429 5.63686 5.63686 3.71429 8 3.71429C10.3631 3.71429 12.2857 5.63686 12.2857 8C12.2857 10.3631 10.3631 12.2857 8 12.2857Z" fill="#799C8A"/>
<path d="M8 6C6.91533 6 6 6.91533 6 8C6 9.08467 6.91533 10 8 10C9.08467 10 10 9.08467 10 8C10 6.91533 9.08467 6 8 6Z" fill="#799C8A"/>
</svg>
