<?xml version="1.0" encoding="utf-8"?>
<!-- Generator: Adobe Illustrator 25.2.1, SVG Export Plug-In . SVG Version: 6.00 Build 0)  -->
<svg version="1.1" id="Layer_1" xmlns="http://www.w3.org/2000/svg" xmlns:xlink="http://www.w3.org/1999/xlink" x="0px" y="0px"
	 viewBox="0 0 20 20" style="enable-background:new 0 0 20 20;" xml:space="preserve">
<path d="M10.5,5.6l-0.3,0.2V5.6C10.3,5.6,10.4,5.6,10.5,5.6z"/>
<path d="M18,10c0,4.4-3.6,8-8,8s-8-3.6-8-8c0-4.4,3.6-8,8-8h0.2V0.6l3,1.7l1.5,0.9l-0.3,0.1L13.2,4l-0.6,0.3l-2.1,1.2
	c-0.1,0-0.2,0-0.3,0V3.8c-0.1,0-0.1,0-0.2,0c-3.4,0-6.2,2.8-6.2,6.2s2.8,6.2,6.2,6.2s6.2-2.8,6.2-6.2c0-1.6-0.6-3-1.5-4.1L16.2,5
	C17.3,6.4,18,8.1,18,10z"/>
</svg>
