<?xml version="1.0" encoding="utf-8"?>
<!-- Generator: Adobe Illustrator 25.2.1, SVG Export Plug-In . SVG Version: 6.00 Build 0)  -->
<svg version="1.1" id="Layer_1" xmlns="http://www.w3.org/2000/svg" xmlns:xlink="http://www.w3.org/1999/xlink" x="0px" y="0px"
	 viewBox="0 0 20 20" style="enable-background:new 0 0 20 20;" xml:space="preserve">
<path d="M9.5,5.6l0.3,0.2V5.6C9.7,5.6,9.6,5.6,9.5,5.6z"/>
<path d="M2,10c0,4.4,3.6,8,8,8s8-3.6,8-8c0-4.4-3.6-8-8-8H9.8V0.6l-3,1.7L5.3,3.2l0.3,0.1L6.8,4l0.6,0.3l2.1,1.2c0.1,0,0.2,0,0.3,0
	V3.8c0.1,0,0.1,0,0.2,0c3.4,0,6.2,2.8,6.2,6.2s-2.8,6.2-6.2,6.2S3.8,13.4,3.8,10c0-1.6,0.6-3,1.5-4.1L3.8,5C2.7,6.4,2,8.1,2,10z"/>
</svg>
