<svg width="24" height="24" viewBox="0 0 24 24" fill="none" xmlns="http://www.w3.org/2000/svg">
<path d="M11.1433 15.7143C11.1433 15.9416 11.2336 16.1596 11.3944 16.3204C11.5551 16.4811 11.7731 16.5714 12.0005 16.5714C12.2278 16.5714 12.4458 16.4811 12.6065 16.3204C12.7673 16.1596 12.8576 15.9416 12.8576 15.7143C12.8576 15.487 12.7673 15.2689 12.6065 15.1082C12.4458 14.9474 12.2278 14.8571 12.0005 14.8571C11.7731 14.8571 11.5551 14.9474 11.3944 15.1082C11.2336 15.2689 11.1433 15.487 11.1433 15.7143ZM11.429 10.2857V13.5714C11.429 13.65 11.4933 13.7143 11.5719 13.7143H12.429C12.5076 13.7143 12.5719 13.65 12.5719 13.5714V10.2857C12.5719 10.2071 12.5076 10.1429 12.429 10.1429H11.5719C11.4933 10.1429 11.429 10.2071 11.429 10.2857ZM19.9237 18.1429L12.4951 5.28571C12.3844 5.09464 12.1933 5 12.0005 5C11.8076 5 11.6147 5.09464 11.5058 5.28571L4.07724 18.1429C3.8576 18.525 4.1326 19 4.57188 19H19.429C19.8683 19 20.1433 18.525 19.9237 18.1429ZM5.9326 17.6446L12.0005 7.14107L18.0683 17.6446H5.9326Z" fill="#EA7C7C"/>
</svg>
