<svg xmlns="http://www.w3.org/2000/svg" viewBox="0 0 25 28"><path fill="#95BF47" fill-rule="evenodd" d="M17.836 27.059l-.062-23.736c-.16-.16-.472-.112-.594-.076l-.813.252a5.675 5.675 0 00-.39-.957c-.576-1.1-1.42-1.682-2.44-1.683h-.003c-.068 0-.136.006-.204.012h-.008a2.234 2.234 0 00-.092-.105C12.786.29 12.216.059 11.533.079c-1.318.038-2.63.99-3.693 2.679-.75 1.19-1.318 2.683-1.48 3.84L3.767 7.4c-.764.24-.788.263-.888.982C2.803 8.928.806 24.377.806 24.377l16.743 2.895.287-.213zM12.35 1.163a1.347 1.347 0 00-.792-.208c-2.033.06-3.807 3.235-4.26 5.352l1.949-.604.347-.107c.255-1.344.896-2.738 1.733-3.636a3.821 3.821 0 011.023-.797zm-1.793 4.135l2.796-.866c.009-.728-.07-1.805-.435-2.565-.388.16-.715.44-.95.691-.628.675-1.14 1.705-1.41 2.74zM14.23 4.16l1.299-.403c-.208-.674-.7-1.805-1.7-1.994.311.802.391 1.73.4 2.397z" clip-rule="evenodd"/><path fill="#5E8E3E" d="M21.587 5.088c-.099-.008-2.035-.037-2.035-.037s-1.619-1.573-1.778-1.733a.399.399 0 00-.225-.103v24.053l7.256-1.804S21.844 5.447 21.825 5.31a.263.263 0 00-.238-.222z"/><path fill="#fff" d="M13.528 8.824l-.843 3.153s-.94-.429-2.054-.358c-1.635.103-1.652 1.134-1.636 1.392.09 1.41 3.799 1.718 4.008 5.021.163 2.599-1.379 4.376-3.601 4.516-2.667.169-4.135-1.405-4.135-1.405l.565-2.404s1.478 1.115 2.66 1.04c.773-.048 1.05-.677 1.021-1.121-.116-1.84-3.137-1.731-3.328-4.754-.16-2.544 1.51-5.12 5.196-5.353 1.42-.09 2.147.273 2.147.273"/></svg>